<svg width="254" height="246" viewBox="0 0 254 246" fill="none" xmlns="http://www.w3.org/2000/svg">
<rect width="208" height="246" rx="30" fill="#3994FF"/>
<rect x="110" width="144" height="246" rx="30" fill="#A8D0FF"/>
<rect x="19.5" y="20" width="214" height="206" rx="30" fill="#001B3B"/>
<path d="M160.583 137.409C159.848 137.019 159.098 136.687 158.346 136.391L158.884 136.347C158.884 136.347 154.086 134.218 153.668 118.765C153.252 103.311 158.24 100.675 158.24 100.675L157.524 100.706C161.292 98.7693 164.533 95.7068 166.672 91.6679C172.246 81.1599 168.257 68.1097 157.772 62.5229C147.283 56.9416 134.265 60.9286 128.695 71.4459C126.405 75.7598 125.755 80.5009 126.477 84.9773L126.231 84.5991C126.231 84.5991 127.494 90.2062 114.378 98.3671C101.264 106.532 95.3478 102.467 95.3478 102.467L95.7239 103.024C95.3489 102.792 94.989 102.554 94.597 102.349C84.1091 96.7622 71.0883 100.754 65.5167 111.268C59.9469 121.781 63.9311 134.827 74.4179 140.416C82.236 144.575 91.454 143.416 97.95 138.2L97.8093 138.474C97.8093 138.474 102.585 134.536 116.344 141.94C127.206 147.783 128.818 153.509 129.025 155.66C128.741 163.643 132.892 171.474 140.403 175.475C150.89 181.063 163.91 177.066 169.481 166.555C175.054 156.044 171.072 142.991 160.583 137.409ZM136.336 140.242C134.598 140.858 129.633 141.541 119.18 135.921C107.86 129.829 106.179 124.741 105.934 123.213C106.095 121.36 105.992 119.509 105.676 117.706L105.745 117.81C105.745 117.81 104.824 112.86 117.777 104.797C129.37 97.5845 134.64 99.0186 135.621 99.3956C136.252 99.8256 136.907 100.226 137.593 100.592C138.898 101.286 140.243 101.832 141.605 102.234C143.199 103.756 146.134 108.077 146.438 119.437C146.75 130.884 143.396 135.298 141.566 136.858C139.681 137.714 137.919 138.855 136.336 140.242Z" fill="white"/>
<path d="M150.121 188.741C150.042 188.661 149.963 188.571 149.883 188.491C149.933 188.544 149.983 188.609 150.042 188.66L150.121 188.741Z" fill="#3994FF"/>
</svg>
